<svg data-v-70b83f88="" version="1.0" xmlns="http://www.w3.org/2000/svg" xmlns:xlink="http://www.w3.org/1999/xlink" width="100%" height="100%" viewBox="0 0 340.000000 250.000000" preserveAspectRatio="xMidYMid meet" color-interpolation-filters="sRGB" style="margin: auto;">   <g data-v-70b83f88="" fill="#ffffff" class="icon-text-wrapper icon-svg-group iconsvg" transform="translate(47.464996337890625,99.02237510681152)"><g class="iconsvg-imagesvg" transform="matrix(0.5057841906124568,0,0,0.5057841906124568,14.826474281626295,12.838552912553133)" opacity="1"><g><rect fill="#ffffff" fill-opacity="0" stroke-width="2" x="0" y="0" width="60" height="51.95524921201205" class="image-rect"></rect> <svg filter="url(#colors1573597133)" x="0" y="0" width="60" height="51.95524921201205" filtersec="colorsf7878958793" class="image-svg-svg primary" style="overflow: visible;"><svg xmlns="http://www.w3.org/2000/svg" viewBox="1.5 2 93.5 81.5"><path d="M48.2 4l22.4 38.8L93 81.5H3.5l22.4-38.8L48.2 4zm0 69L28 39m15.2 42.5L23 47.7M68.4 39L43.2 81.5m10.1 0l20.2-33.8M63.4 81.5l15.1-25.1m-5.1 25.1l10.1-16.3m5.1 8.7l-5 7.6M17.9 56.4L33 81.5m30.4-51.3L43.2 64.4M23 81.5L12.9 65.2m45.4-43.7L38.1 55.8M7.8 73.9l5 7.6M33 47.3l20.3-34.6" fill="none" stroke="#333" stroke-width="4" stroke-miterlimit="10"></path></svg></svg> <defs><filter id="colors1573597133"><feColorMatrix type="matrix" values="0 0 0 0 0.99609375  0 0 0 0 0.99609375  0 0 0 0 0.99609375  0 0 0 1 0" class="icon-fecolormatrix"></feColorMatrix></filter> <filter id="colorsf7878958793"><feColorMatrix type="matrix" values="0 0 0 0 0.99609375  0 0 0 0 0.99609375  0 0 0 0 0.99609375  0 0 0 1 0" class="icon-fecolormatrix"></feColorMatrix></filter> <filter id="colorsb2213328896"><feColorMatrix type="matrix" values="0 0 0 0 0  0 0 0 0 0  0 0 0 0 0  0 0 0 1 0" class="icon-fecolormatrix"></feColorMatrix></filter></defs></g></g> <g transform="translate(67,13.032625198364258)"><g data-gra="path-name" fill-rule="" class="tp-name iconsvg-namesvg" opacity="1" transform="matrix(0.01,0,0,0.01,88.14465350747109,12.815549697875976)"><g transform="scale(1)"><g><path d="M14.89-13.93L11.65-13.93 11.65-19.51 4.17-19.51 4.17-11.1 12.34-11.1 14.89-8.58 14.89 0.55 12.34 3.14 3.52 3.14 0.93 0.55 0.93-5.31 4.17-5.31 4.17-0.07 11.65-0.07 11.65-7.93 3.52-7.93 0.93-10.48 0.93-20.17 3.48-22.72 12.34-22.72 14.89-20.17 14.89-13.93ZM20-15.34L20 3.14 16.76 3.14 16.76-22.17 20.03-22.17 27.82-4.24 27.82-22.17 30.99-22.17 30.99 3.14 28.06 3.14 20-15.34ZM32.92 3.14L32.92-0.07 35.41-0.07 35.41-18.96 32.92-18.96 32.92-22.17 41.1-22.17 41.1-18.96 38.61-18.96 38.61-0.07 41.1-0.07 41.1 3.14 32.92 3.14ZM54.4-22.1L56.95-19.51 56.95-8.07 54.4-5.48 46.23-5.48 46.23 3.17 42.99 3.17 42.99-22.1 54.4-22.1ZM53.71-8.69L53.78-18.86 46.27-18.86 46.27-8.69 53.71-8.69ZM62.02-0.14L72.74-0.14 72.74 3.03 61.4 3.03 58.85 0.48 58.85-22.17 72.74-22.17 72.74-19 62.02-19 62.02-11.45 72.74-11.45 72.74-8.27 62.02-8.27 62.02-0.14ZM85.5-0.07L88.53-0.07 88.53 3.14 84.85 3.14 82.29 0.55 82.29-6.14 77.88-6.14 77.88 3.1 74.64 3.1 74.64-22.13 85.98-22.13 88.53-19.55 88.53-8.69 85.98-6.14 85.5-6.14 85.5-0.07ZM85.33-9.31L85.33-18.93 77.88-18.93 77.88-9.31 85.33-9.31ZM116.94 3.14L113.7 3.14 112.32-3.62 104.46-3.62 103.08 3.14 99.84 3.14 104.84-22.13 111.81-22.13 116.94 3.14ZM109.15-18.93L107.53-18.93 105.12-6.79 111.63-6.79 109.15-18.93ZM132.73-19.55L132.73 0.55 130.18 3.14 118.77 3.14 118.77-22.13 130.18-22.13 132.73-19.55ZM122.01-18.93L122.01-0.07 129.49-0.07 129.49-18.93 122.01-18.93ZM149.63-12.17L145.8 0.9 141.97 0.9 137.77-12.24 137.77 3.1 134.59 3.1 134.59-22.13 137.77-22.13 143.83-2.76 149.56-22.13 152.8-22.13 152.8 3.1 149.63 3.1 149.63-12.17ZM154.69 3.14L154.69-0.07 157.18-0.07 157.18-18.96 154.69-18.96 154.69-22.17 162.87-22.17 162.87-18.96 160.38-18.96 160.38-0.07 162.87-0.07 162.87 3.14 154.69 3.14ZM168-15.34L168 3.14 164.76 3.14 164.76-22.17 168.04-22.17 175.83-4.24 175.83-22.17 179-22.17 179 3.14 176.07 3.14 168-15.34Z" transform="translate(-0.9300000667572021, 22.719999313354492)"></path></g> <!----> <!----> <!----> <!----> <!----> <!----> <!----></g></g> <!----></g></g><defs v-gra="od"></defs></svg>